<svg width="32" height="32" viewBox="0 0 32 32" fill="none" xmlns="http://www.w3.org/2000/svg">
<path d="M16 28C22.6274 28 28 22.6274 28 16C28 9.37258 22.6274 4 16 4C9.37258 4 4 9.37258 4 16C4 22.6274 9.37258 28 16 28Z" stroke="#3A5F6F" stroke-width="2" stroke-linecap="round" stroke-linejoin="round"/>
<path d="M16 28C18.9455 28 21.3333 22.6274 21.3333 16C21.3333 9.37258 18.9455 4 16 4C13.0544 4 10.6666 9.37258 10.6666 16C10.6666 22.6274 13.0544 28 16 28Z" stroke="#3A5F6F" stroke-width="2" stroke-linecap="round" stroke-linejoin="round"/>
<path d="M4 15.9998C4 18.9454 9.37258 21.3332 16 21.3332C22.6274 21.3332 28 18.9454 28 15.9998C28 13.0543 22.6274 10.6665 16 10.6665C9.37258 10.6665 4 13.0543 4 15.9998Z" stroke="#3A5F6F" stroke-width="2" stroke-linecap="round" stroke-linejoin="round"/>
</svg>
