<svg width="25" height="24" viewBox="0 0 25 24" fill="none" xmlns="http://www.w3.org/2000/svg">
<path d="M21.9575 2.45514C21.8413 2.3548 21.6999 2.28806 21.5486 2.26213C21.3973 2.23619 21.2417 2.25203 21.0987 2.30795L2.09937 9.74327C1.8301 9.84797 1.60214 10.0373 1.4498 10.2828C1.29745 10.5283 1.22898 10.8166 1.25468 11.1043C1.28037 11.3921 1.39886 11.6637 1.59229 11.8783C1.78572 12.0929 2.04362 12.2389 2.32718 12.2942L7.24999 13.2608V18.7498C7.24902 19.0488 7.33787 19.3412 7.50503 19.5891C7.67219 19.837 7.90995 20.029 8.18749 20.1401C8.46461 20.2533 8.76936 20.2805 9.06213 20.2181C9.35489 20.1557 9.62211 20.0067 9.82906 19.7905L12.2028 17.3286L15.9687 20.6248C16.2404 20.8658 16.5909 20.9992 16.9541 20.9998C17.1132 20.9997 17.2714 20.9747 17.4228 20.9258C17.6703 20.8472 17.8928 20.7053 18.0683 20.514C18.2438 20.3227 18.3662 20.0887 18.4231 19.8355L22.2284 3.28108C22.2625 3.13178 22.2552 2.97603 22.2075 2.83053C22.1598 2.68503 22.0734 2.55527 21.9575 2.45514ZM16.2256 5.83014L7.82656 11.8451L3.17656 10.933L16.2256 5.83014ZM8.74999 18.7498V14.2986L11.0741 16.3367L8.74999 18.7498ZM16.9559 19.4998L9.20468 12.703L20.3609 4.70702L16.9559 19.4998Z" fill="#7ECDC8"/>
</svg>
